<svg xmlns="http://www.w3.org/2000/svg" width="1420" height="562"
 viewBox="0 0 1420 562">
<defs><marker id="ah" viewBox="0 0 10 10" refX="9" refY="5" markerWidth="7" markerHeight="7" orient="auto-start-reverse"><path d="M 0 0 L 10 5 L 0 10 z" fill="#37474f"/></marker></defs>
<rect width="100%" height="100%" fill="#ffffff"/>
<style>text{font-family:"Noto Sans CJK SC","Droid Sans Fallback",sans-serif;}</style>
<text x="710" y="28" font-size="21" fill="#1a1a1a" text-anchor="middle" dominant-baseline="central" font-weight="bold">图 6  Sequence Diagram —— 远端备份与增量链还原</text>
<rect x="32" y="58" width="156" height="40" rx="4" fill="#eceff1" stroke="#263238" stroke-width="1.6"/>
<text x="110" y="78" font-size="13" fill="#1a1a1a" text-anchor="middle" dominant-baseline="central" font-weight="bold">用户 / 客户端</text>
<line x1="110" y1="98" x2="110" y2="562" stroke="#b0bec5" stroke-width="1.2"/>
<rect x="203.429" y="58" width="156" height="40" rx="4" fill="#eceff1" stroke="#263238" stroke-width="1.6"/>
<text x="281.429" y="78" font-size="13" fill="#1a1a1a" text-anchor="middle" dominant-baseline="central" font-weight="bold">RemoteController</text>
<line x1="281.429" y1="98" x2="281.429" y2="562" stroke="#b0bec5" stroke-width="1.2"/>
<rect x="374.857" y="58" width="156" height="40" rx="4" fill="#eceff1" stroke="#263238" stroke-width="1.6"/>
<text x="452.857" y="78" font-size="13" fill="#1a1a1a" text-anchor="middle" dominant-baseline="central" font-weight="bold">RemoteArchiveClient</text>
<line x1="452.857" y1="98" x2="452.857" y2="562" stroke="#b0bec5" stroke-width="1.2"/>
<rect x="546.286" y="58" width="156" height="40" rx="4" fill="#eceff1" stroke="#263238" stroke-width="1.6"/>
<text x="624.286" y="78" font-size="13" fill="#1a1a1a" text-anchor="middle" dominant-baseline="central" font-weight="bold">SecureChannel</text>
<line x1="624.286" y1="98" x2="624.286" y2="562" stroke="#b0bec5" stroke-width="1.2"/>
<rect x="717.714" y="58" width="156" height="40" rx="4" fill="#eceff1" stroke="#263238" stroke-width="1.6"/>
<text x="795.714" y="78" font-size="13" fill="#1a1a1a" text-anchor="middle" dominant-baseline="central" font-weight="bold">backup-server</text>
<line x1="795.714" y1="98" x2="795.714" y2="562" stroke="#b0bec5" stroke-width="1.2"/>
<rect x="889.143" y="58" width="156" height="40" rx="4" fill="#eceff1" stroke="#263238" stroke-width="1.6"/>
<text x="967.143" y="78" font-size="13" fill="#1a1a1a" text-anchor="middle" dominant-baseline="central" font-weight="bold">MetadataStore</text>
<line x1="967.143" y1="98" x2="967.143" y2="562" stroke="#b0bec5" stroke-width="1.2"/>
<rect x="1060.57" y="58" width="156" height="40" rx="4" fill="#eceff1" stroke="#263238" stroke-width="1.6"/>
<text x="1138.57" y="78" font-size="13" fill="#1a1a1a" text-anchor="middle" dominant-baseline="central" font-weight="bold">本地增量引擎</text>
<line x1="1138.57" y1="98" x2="1138.57" y2="562" stroke="#b0bec5" stroke-width="1.2"/>
<rect x="1232" y="58" width="156" height="40" rx="4" fill="#eceff1" stroke="#263238" stroke-width="1.6"/>
<text x="1310" y="78" font-size="13" fill="#1a1a1a" text-anchor="middle" dominant-baseline="central" font-weight="bold">恢复发布</text>
<line x1="1310" y1="98" x2="1310" y2="562" stroke="#b0bec5" stroke-width="1.2"/>
<line x1="110" y1="120" x2="281.429" y2="120" stroke="#455a64" stroke-width="1.8" marker-end="url(#ah)"/>
<text x="195.714" y="109" font-size="12" fill="#455a64" text-anchor="middle" dominant-baseline="central">remote backup &lt;源&gt; --strategy incremental</text>
<line x1="281.429" y1="154" x2="452.857" y2="154" stroke="#455a64" stroke-width="1.8" marker-end="url(#ah)"/>
<text x="367.143" y="143" font-size="12" fill="#455a64" text-anchor="middle" dominant-baseline="central">ResolveRemoteChain：LIST -&gt; 沿 parent_id 上溯到链根</text>
<line x1="452.857" y1="188" x2="624.286" y2="188" stroke="#455a64" stroke-width="1.8" marker-end="url(#ah)"/>
<text x="538.571" y="177" font-size="12" fill="#455a64" text-anchor="middle" dominant-baseline="central">BPSEC1/2 握手（证书或 pin），之后才发业务帧</text>
<line x1="624.286" y1="222" x2="795.714" y2="222" stroke="#455a64" stroke-width="1.8" marker-end="url(#ah)"/>
<text x="710" y="211" font-size="12" fill="#455a64" text-anchor="middle" dominant-baseline="central">UPLOAD_BEGIN 声明 kind / parent / lineage</text>
<line x1="795.714" y1="256" x2="967.143" y2="256" stroke="#455a64" stroke-width="1.8" marker-end="url(#ah)"/>
<text x="881.429" y="245" font-size="12" fill="#455a64" text-anchor="middle" dominant-baseline="central">校验：同用户 + 同 lineage + generation = parent + 1</text>
<line x1="624.286" y1="290" x2="795.714" y2="290" stroke="#455a64" stroke-width="1.8" marker-end="url(#ah)"/>
<text x="710" y="279" font-size="12" fill="#455a64" text-anchor="middle" dominant-baseline="central">UPLOAD_CHUNK / UPLOAD_END（BPSNAP1 材料包）</text>
<line x1="795.714" y1="324" x2="1138.57" y2="324" stroke="#455a64" stroke-width="1.8" marker-end="url(#ah)"/>
<text x="967.143" y="313" font-size="12" fill="#455a64" text-anchor="middle" dominant-baseline="central">先落盘再登记元数据（元数据最后提交）</text>
<line x1="795.714" y1="358" x2="624.286" y2="358" stroke="#2e7d32" stroke-width="1.8" marker-end="url(#ah)"/>
<text x="710" y="347" font-size="12" fill="#2e7d32" text-anchor="middle" dominant-baseline="central">回执：快照 id / generation</text>
<line x1="624.286" y1="392" x2="452.857" y2="392" stroke="#455a64" stroke-width="1.8" marker-end="url(#ah)"/>
<text x="538.571" y="381" font-size="12" fill="#455a64" text-anchor="middle" dominant-baseline="central">下载整条链的材料包（缓存未命中时才下）</text>
<line x1="1138.57" y1="426" x2="1138.57" y2="426" stroke="#455a64" stroke-width="1.8" marker-end="url(#ah)"/>
<text x="1138.57" y="415" font-size="12" fill="#455a64" text-anchor="middle" dominant-baseline="central">逐成员 SHA-256 校验 -&gt; 解包 -&gt; 身份复核</text>
<line x1="1138.57" y1="460" x2="1310" y2="460" stroke="#455a64" stroke-width="1.8" marker-end="url(#ah)"/>
<text x="1224.29" y="449" font-size="12" fill="#455a64" text-anchor="middle" dominant-baseline="central">base -&gt; 逐个 apply delta -&gt; preflight -&gt; staging</text>
<line x1="1310" y1="494" x2="281.429" y2="494" stroke="#2e7d32" stroke-width="1.8" marker-end="url(#ah)"/>
<text x="795.714" y="483" font-size="12" fill="#2e7d32" text-anchor="middle" dominant-baseline="central">原子发布 -&gt; 回执</text>
</svg>